<svg width="170" height="170" viewBox="0 0 170 170" fill="none" xmlns="http://www.w3.org/2000/svg">
<path fill-rule="evenodd" clip-rule="evenodd" d="M79.0698 5.93023C79.0698 4.35744 79.6946 2.84906 80.8067 1.73693C81.9188 0.624791 83.4272 0 85 0C131.944 0 170 38.0563 170 85C170 131.944 131.944 170 85 170C38.0563 170 0 131.944 0 85C0 83.4272 0.624791 81.9188 1.73693 80.8067C2.84906 79.6946 4.35744 79.0698 5.93023 79.0698C7.50303 79.0698 9.01141 79.6946 10.1235 80.8067C11.2357 81.9188 11.8605 83.4272 11.8605 85C11.8605 99.4656 16.15 113.606 24.1867 125.634C32.2234 137.662 43.6462 147.036 57.0107 152.572C70.3752 158.108 85.0811 159.556 99.2688 156.734C113.456 153.912 126.489 146.946 136.717 136.717C146.946 126.489 153.912 113.456 156.734 99.2688C159.556 85.0811 158.108 70.3752 152.572 57.0107C147.036 43.6462 137.662 32.2234 125.634 24.1867C113.606 16.15 99.4656 11.8605 85 11.8605C83.4272 11.8605 81.9188 11.2357 80.8067 10.1235C79.6946 9.01141 79.0698 7.50303 79.0698 5.93023ZM85 55.3488C86.5728 55.3488 88.0812 55.9736 89.1933 57.0858C90.3054 58.1979 90.9302 59.7063 90.9302 61.2791V86.9767H116.628C118.201 86.9767 119.709 87.6015 120.821 88.7137C121.933 89.8258 122.558 91.3342 122.558 92.907C122.558 94.4798 121.933 95.9881 120.821 97.1003C119.709 98.2124 118.201 98.8372 116.628 98.8372H85C83.4272 98.8372 81.9188 98.2124 80.8067 97.1003C79.6946 95.9881 79.0698 94.4798 79.0698 92.907V61.2791C79.0698 59.7063 79.6946 58.1979 80.8067 57.0858C81.9188 55.9736 83.4272 55.3488 85 55.3488ZM62.0698 9.07721C62.3504 9.80403 62.4851 10.579 62.4661 11.3579C62.4471 12.1368 62.2748 12.9043 61.959 13.6166C61.6433 14.3289 61.1903 14.972 60.6259 15.5091C60.0615 16.0462 59.3968 16.4669 58.6698 16.747C57.5515 17.1749 56.4441 17.631 55.3488 18.1149C54.6324 18.467 53.8522 18.6708 53.0551 18.7141C52.258 18.7574 51.4604 18.6394 50.71 18.367C49.9596 18.0947 49.272 17.6736 48.6882 17.1291C48.1045 16.5846 47.6367 15.9278 47.3129 15.1982C46.9891 14.4685 46.8159 13.681 46.8037 12.8828C46.7916 12.0846 46.9407 11.2922 47.2422 10.553C47.5437 9.81388 47.9913 9.14319 48.5582 8.58117C49.1251 8.01916 49.7996 7.57738 50.5414 7.28233C51.8065 6.71302 53.0927 6.17798 54.4 5.67721C55.1268 5.39657 55.9018 5.2619 56.6807 5.2809C57.4596 5.2999 58.2271 5.4722 58.9394 5.78795C59.6517 6.1037 60.2947 6.55671 60.8319 7.1211C61.369 7.68549 61.7896 8.35019 62.0698 9.07721ZM34.7749 23.6419C35.8586 24.7808 36.4457 26.3035 36.4071 27.8751C36.3686 29.4468 35.7075 30.9388 34.5693 32.0233C33.702 32.8504 32.8556 33.6994 32.0312 34.5693C30.9459 35.7091 29.4524 36.371 27.8791 36.4096C26.3058 36.4481 24.7816 35.8601 23.6419 34.7749C22.5021 33.6897 21.8401 32.1961 21.8016 30.6228C21.763 29.0495 22.3511 27.5253 23.4363 26.3856C24.4009 25.384 25.384 24.4009 26.3856 23.4363C27.5245 22.3526 29.0472 21.7655 30.6188 21.804C32.1905 21.8426 33.6904 22.5036 34.7749 23.6419ZM15.1023 47.5288C15.8142 47.8449 16.4568 48.2982 16.9935 48.8627C17.5301 49.4272 17.9503 50.0919 18.2301 50.8188C18.5098 51.5457 18.6436 52.3206 18.6239 53.0992C18.6041 53.8778 18.4312 54.645 18.1149 55.3567C17.6299 56.4479 17.1713 57.5522 16.7391 58.6698C16.148 60.1017 15.0202 61.2455 13.5967 61.8565C12.1732 62.4676 10.5672 62.4974 9.12198 61.9396C7.67681 61.3818 6.50728 60.2806 5.86353 58.8716C5.21977 57.4626 5.1529 55.8577 5.67721 54.4C6.17271 53.098 6.70512 51.8118 7.27442 50.5414C7.59053 49.8295 8.04377 49.1869 8.60826 48.6503C9.17275 48.1136 9.83744 47.6934 10.5643 47.4136C11.2913 47.1339 12.0662 47.0001 12.8448 47.0198C13.6234 47.0396 14.3905 47.2126 15.1023 47.5288Z" fill="#24A7FF"/>
</svg>
