<svg width="193" height="170" viewBox="0 0 193 170" fill="none" xmlns="http://www.w3.org/2000/svg">
<path fill-rule="evenodd" clip-rule="evenodd" d="M192.795 23.9121C192.795 10.7931 182.348 -0.460736 168.637 0.0145263C158.424 0.373215 145.089 1.43135 134.822 4.5071C125.9 7.17933 115.865 12.3982 108.037 16.9267C104.419 19.0163 100.332 20.1595 96.1548 20.2504C91.9776 20.3413 87.845 19.377 84.1393 17.4468C75.208 12.73 63.4699 7.13449 53.2742 4.44433C44.6657 2.17563 33.7615 1.08163 24.9109 0.534625C10.94 -0.31726 0 11.0621 0 24.495V124.444C0 138.217 11.1552 148.969 24.3729 149.794C32.9724 150.332 42.6481 151.372 49.8398 153.273C58.7442 155.614 69.747 160.841 78.6424 165.576C84.1098 168.481 90.2064 170 96.3975 170C102.589 170 108.685 168.481 114.153 165.576C123.039 160.841 134.051 155.623 142.946 153.273C150.147 151.372 159.823 150.332 168.422 149.794C181.64 148.969 192.795 138.217 192.795 124.444V23.9121ZM169.104 13.4564C174.618 13.2681 179.344 17.8055 179.344 23.9121V124.435C179.344 130.586 174.251 135.957 167.579 136.37C158.791 136.926 148.04 138.011 139.512 140.262C129.02 143.042 116.87 148.888 107.831 153.713C106.318 154.52 104.749 155.15 103.123 155.605V32.9601C107.176 32.153 111.122 30.6824 114.78 28.5661C122.402 24.1543 131.325 19.5989 138.678 17.393C147.197 14.8463 159.069 13.8061 169.104 13.4564ZM89.6721 33.256C85.5429 32.6174 81.5488 31.2961 77.8533 29.3463C69.0924 24.7102 58.4752 19.7334 49.8487 17.4558C42.5584 15.5278 32.7483 14.4966 24.0859 13.9585C18.4007 13.6178 13.4508 18.2449 13.4508 24.495V124.444C13.4508 130.586 18.5442 135.957 25.2158 136.37C34.0037 136.926 44.7553 138.011 53.2832 140.262C63.7748 143.042 75.9254 148.888 84.9643 153.713C86.4768 154.52 88.046 155.15 89.6721 155.605V33.256Z" fill="#24A7FF"/>
</svg>
