<svg width="182" height="182" viewBox="0 0 182 182" fill="none" xmlns="http://www.w3.org/2000/svg">
<path d="M90.9981 125.001C42.0387 125.001 33.3688 76.2111 31.8388 37.5026C31.4053 26.7417 31.1928 21.3527 35.2387 16.3803C39.2762 11.3994 44.1126 10.5834 53.794 8.95139C66.092 6.93688 78.5364 5.95032 90.9981 6.00192C106.162 6.00192 118.648 7.33641 128.202 8.95139C137.884 10.5834 142.72 11.3994 146.766 16.3803C150.812 21.3612 150.591 26.7417 150.166 37.5026C148.636 76.2111 139.966 125.001 91.0066 125.001H90.9981Z" stroke="#24A7FF" stroke-width="12"/>
<path d="M150.498 31.5015L158.565 34.1874C166.98 36.9924 171.187 38.3949 173.593 41.7353C175.998 45.0758 175.998 49.5213 175.998 58.3782V58.9987C175.998 66.3086 175.998 69.972 174.239 72.964C172.479 75.956 169.275 77.7324 162.883 81.2939L137.749 95.2507M31.4997 31.5015L23.4333 34.1874C15.0184 36.9924 10.8109 38.3949 8.40547 41.7353C6 45.0758 6 49.5213 6 58.3782V58.9987C6 66.3086 6 69.972 7.75948 72.964C9.51896 75.956 12.7234 77.7324 19.1154 81.2939L44.2496 95.2507" stroke="#24A7FF" stroke-width="12"/>
<path d="M91 125V150.5" stroke="#24A7FF" stroke-width="12" stroke-linecap="round"/>
<path d="M120.749 176H61.25L64.14 161.584C64.525 159.658 65.5652 157.924 67.0838 156.679C68.6024 155.433 70.5056 154.751 72.4699 154.75H109.529C111.494 154.751 113.397 155.433 114.916 156.679C116.434 157.924 117.474 159.658 117.859 161.584L120.749 176Z" stroke="#24A7FF" stroke-width="12" stroke-linecap="round" stroke-linejoin="round"/>
<path d="M141.999 176H40" stroke="#24A7FF" stroke-width="12" stroke-linecap="round"/>
</svg>
